solid OpenSCAD_Model
  facet normal -0.994471 0.0100722 -0.104523
    outer loop
      vertex -20.2966 -45 -4.31417
      vertex -20.75 -45 0
      vertex -18 6 -21.25
    endloop
  endfacet
  facet normal -0.998228 0.0332743 -0.0493242
    outer loop
      vertex -18 6 -21.25
      vertex -20.75 -45 0
      vertex -19.75 -15 0
    endloop
  endfacet
  facet normal -0.993976 0.0331325 0.104471
    outer loop
      vertex -19.75 -15 0
      vertex -20.75 -45 0
      vertex -20.2966 -45 4.31417
    endloop
  endfacet
  facet normal 0 -1 0
    outer loop
      vertex -20.2966 -45 4.31417
      vertex -20.75 -45 0
      vertex -20.2966 -45 -4.31417
    endloop
  endfacet
  facet normal 0 -1 0
    outer loop
      vertex -16.7871 -45 -12.1965
      vertex -20.2966 -45 4.31417
      vertex -18.9561 -45 -8.43978
    endloop
  endfacet
  facet normal 0 -1 0
    outer loop
      vertex -18.9561 -45 -8.43978
      vertex -20.2966 -45 4.31417
      vertex -20.2966 -45 -4.31417
    endloop
  endfacet
  facet normal 0 -1 0
    outer loop
      vertex -18.3403 -45 -3.89834
      vertex -20.2966 -45 4.31417
      vertex -16.7871 -45 -12.1965
    endloop
  endfacet
  facet normal 0 -1 0
    outer loop
      vertex -12.5462 -45 13.934
      vertex -9.375 -45 16.238
      vertex -6.4121 -45 19.7344
    endloop
  endfacet
  facet normal 0 -1 0
    outer loop
      vertex -5.79407 -45 17.8323
      vertex -1.95991 -45 18.6473
      vertex -2.16897 -45 20.6363
    endloop
  endfacet
  facet normal 0 -1 0
    outer loop
      vertex -13.8845 -45 15.4203
      vertex -20.2966 -45 4.31417
      vertex -10.375 -45 17.97
    endloop
  endfacet
  facet normal 0 -1 0
    outer loop
      vertex -16.7871 -45 12.1965
      vertex -20.2966 -45 4.31417
      vertex -13.8845 -45 15.4203
    endloop
  endfacet
  facet normal 0 -1 0
    outer loop
      vertex -18.9561 -45 8.43978
      vertex -20.2966 -45 4.31417
      vertex -16.7871 -45 12.1965
    endloop
  endfacet
  facet normal 0 -1 0
    outer loop
      vertex -17.129 -45 -7.62631
      vertex -18.3403 -45 -3.89834
      vertex -16.7871 -45 -12.1965
    endloop
  endfacet
  facet normal 0 -1 0
    outer loop
      vertex 12.5462 -45 -13.934
      vertex 9.375 -45 -16.238
      vertex 13.8845 -45 -15.4203
    endloop
  endfacet
  facet normal 0 -1 0
    outer loop
      vertex 15.1691 -45 -11.021
      vertex 12.5462 -45 -13.934
      vertex 16.7871 -45 -12.1965
    endloop
  endfacet
  facet normal 0 -1 0
    outer loop
      vertex -1.95991 -45 18.6473
      vertex 1.95991 -45 18.6473
      vertex 2.16897 -45 20.6363
    endloop
  endfacet
  facet normal 0 -1 0
    outer loop
      vertex -9.375 -45 -16.238
      vertex -12.5462 -45 -13.934
      vertex -10.375 -45 -17.97
    endloop
  endfacet
  facet normal 0 -1 0
    outer loop
      vertex -10.375 -45 17.97
      vertex -20.2966 -45 4.31417
      vertex -15.1691 -45 11.021
    endloop
  endfacet
  facet normal 0 -1 0
    outer loop
      vertex -10.375 -45 17.97
      vertex -12.5462 -45 13.934
      vertex -6.4121 -45 19.7344
    endloop
  endfacet
  facet normal 0 -1 0
    outer loop
      vertex -10.375 -45 17.97
      vertex -15.1691 -45 11.021
      vertex -12.5462 -45 13.934
    endloop
  endfacet
  facet normal 0 -1 0
    outer loop
      vertex -6.4121 -45 19.7344
      vertex -9.375 -45 16.238
      vertex -2.16897 -45 20.6363
    endloop
  endfacet
  facet normal 0 -1 0
    outer loop
      vertex -9.375 -45 16.238
      vertex -5.79407 -45 17.8323
      vertex -2.16897 -45 20.6363
    endloop
  endfacet
  facet normal 0 -1 0
    outer loop
      vertex -2.16897 -45 20.6363
      vertex -1.95991 -45 18.6473
      vertex 2.16897 -45 20.6363
    endloop
  endfacet
  facet normal 0 -1 0
    outer loop
      vertex -17.129 -45 7.62631
      vertex -15.1691 -45 11.021
      vertex -20.2966 -45 4.31417
    endloop
  endfacet
  facet normal 0 -1 0
    outer loop
      vertex 2.16897 -45 20.6363
      vertex 1.95991 -45 18.6473
      vertex 6.4121 -45 19.7344
    endloop
  endfacet
  facet normal 0 -1 0
    outer loop
      vertex 6.4121 -45 19.7344
      vertex 5.79407 -45 17.8323
      vertex 10.375 -45 17.97
    endloop
  endfacet
  facet normal 0 -1 0
    outer loop
      vertex 10.375 -45 17.97
      vertex 9.375 -45 16.238
      vertex 13.8845 -45 15.4203
    endloop
  endfacet
  facet normal 0 -1 0
    outer loop
      vertex 13.8845 -45 15.4203
      vertex 12.5462 -45 13.934
      vertex 16.7871 -45 12.1965
    endloop
  endfacet
  facet normal 0 -1 0
    outer loop
      vertex 16.7871 -45 12.1965
      vertex 15.1691 -45 11.021
      vertex 18.9561 -45 8.43978
    endloop
  endfacet
  facet normal 0 -1 0
    outer loop
      vertex 18.9561 -45 8.43978
      vertex 17.129 -45 7.62631
      vertex 20.2966 -45 4.31417
    endloop
  endfacet
  facet normal 0 -1 0
    outer loop
      vertex 20.2966 -45 4.31417
      vertex 18.3403 -45 3.89834
      vertex 20.75 -45 0
    endloop
  endfacet
  facet normal 0 -1 0
    outer loop
      vertex 20.75 -45 0
      vertex 18.75 -45 0
      vertex 20.2966 -45 -4.31417
    endloop
  endfacet
  facet normal 0 -1 0
    outer loop
      vertex 18.75 -45 0
      vertex 18.3403 -45 -3.89834
      vertex 20.2966 -45 -4.31417
    endloop
  endfacet
  facet normal 0 -1 0
    outer loop
      vertex 20.2966 -45 -4.31417
      vertex 17.129 -45 -7.62631
      vertex 18.9561 -45 -8.43978
    endloop
  endfacet
  facet normal 0 -1 0
    outer loop
      vertex 18.9561 -45 -8.43978
      vertex 15.1691 -45 -11.021
      vertex 16.7871 -45 -12.1965
    endloop
  endfacet
  facet normal 0 -1 0
    outer loop
      vertex 1.95991 -45 18.6473
      vertex 5.79407 -45 17.8323
      vertex 6.4121 -45 19.7344
    endloop
  endfacet
  facet normal 0 -1 0
    outer loop
      vertex 16.7871 -45 -12.1965
      vertex 12.5462 -45 -13.934
      vertex 13.8845 -45 -15.4203
    endloop
  endfacet
  facet normal 0 -1 0
    outer loop
      vertex 5.79407 -45 17.8323
      vertex 9.375 -45 16.238
      vertex 10.375 -45 17.97
    endloop
  endfacet
  facet normal 0 -1 0
    outer loop
      vertex 13.8845 -45 -15.4203
      vertex 9.375 -45 -16.238
      vertex 10.375 -45 -17.97
    endloop
  endfacet
  facet normal 0 -1 0
    outer loop
      vertex 9.375 -45 16.238
      vertex 12.5462 -45 13.934
      vertex 13.8845 -45 15.4203
    endloop
  endfacet
  facet normal 0 -1 0
    outer loop
      vertex 10.375 -45 -17.97
      vertex 5.79407 -45 -17.8323
      vertex 6.4121 -45 -19.7344
    endloop
  endfacet
  facet normal 0 -1 0
    outer loop
      vertex 12.5462 -45 13.934
      vertex 15.1691 -45 11.021
      vertex 16.7871 -45 12.1965
    endloop
  endfacet
  facet normal 0 -1 0
    outer loop
      vertex 6.4121 -45 -19.7344
      vertex 1.95991 -45 -18.6473
      vertex 2.16897 -45 -20.6363
    endloop
  endfacet
  facet normal 0 -1 0
    outer loop
      vertex 15.1691 -45 11.021
      vertex 17.129 -45 7.62631
      vertex 18.9561 -45 8.43978
    endloop
  endfacet
  facet normal 0 -1 0
    outer loop
      vertex 2.16897 -45 -20.6363
      vertex -1.95991 -45 -18.6473
      vertex -2.16897 -45 -20.6363
    endloop
  endfacet
  facet normal 0 -1 0
    outer loop
      vertex 17.129 -45 7.62631
      vertex 18.3403 -45 3.89834
      vertex 20.2966 -45 4.31417
    endloop
  endfacet
  facet normal 0 -1 0
    outer loop
      vertex -2.16897 -45 -20.6363
      vertex -5.79407 -45 -17.8323
      vertex -6.4121 -45 -19.7344
    endloop
  endfacet
  facet normal 0 -1 0
    outer loop
      vertex 18.3403 -45 3.89834
      vertex 18.75 -45 0
      vertex 20.75 -45 0
    endloop
  endfacet
  facet normal 0 -1 0
    outer loop
      vertex -6.4121 -45 -19.7344
      vertex -9.375 -45 -16.238
      vertex -10.375 -45 -17.97
    endloop
  endfacet
  facet normal 0 -1 0
    outer loop
      vertex 18.3403 -45 -3.89834
      vertex 17.129 -45 -7.62631
      vertex 20.2966 -45 -4.31417
    endloop
  endfacet
  facet normal 0 -1 0
    outer loop
      vertex -10.375 -45 -17.97
      vertex -12.5462 -45 -13.934
      vertex -13.8845 -45 -15.4203
    endloop
  endfacet
  facet normal 0 -1 0
    outer loop
      vertex -12.5462 -45 -13.934
      vertex -15.1691 -45 -11.021
      vertex -13.8845 -45 -15.4203
    endloop
  endfacet
  facet normal 0 -1 0
    outer loop
      vertex -13.8845 -45 -15.4203
      vertex -17.129 -45 -7.62631
      vertex -16.7871 -45 -12.1965
    endloop
  endfacet
  facet normal 0 -1 0
    outer loop
      vertex -18.3403 -45 -3.89834
      vertex -18.75 -45 0
      vertex -20.2966 -45 4.31417
    endloop
  endfacet
  facet normal 0 -1 0
    outer loop
      vertex 9.375 -45 -16.238
      vertex 5.79407 -45 -17.8323
      vertex 10.375 -45 -17.97
    endloop
  endfacet
  facet normal 0 -1 0
    outer loop
      vertex 5.79407 -45 -17.8323
      vertex 1.95991 -45 -18.6473
      vertex 6.4121 -45 -19.7344
    endloop
  endfacet
  facet normal 0 -1 0
    outer loop
      vertex 1.95991 -45 -18.6473
      vertex -1.95991 -45 -18.6473
      vertex 2.16897 -45 -20.6363
    endloop
  endfacet
  facet normal 0 -1 0
    outer loop
      vertex -1.95991 -45 -18.6473
      vertex -5.79407 -45 -17.8323
      vertex -2.16897 -45 -20.6363
    endloop
  endfacet
  facet normal 0 -1 0
    outer loop
      vertex -5.79407 -45 -17.8323
      vertex -9.375 -45 -16.238
      vertex -6.4121 -45 -19.7344
    endloop
  endfacet
  facet normal 0 -1 0
    outer loop
      vertex -15.1691 -45 -11.021
      vertex -17.129 -45 -7.62631
      vertex -13.8845 -45 -15.4203
    endloop
  endfacet
  facet normal 0 -1 0
    outer loop
      vertex -18.75 -45 0
      vertex -18.3403 -45 3.89834
      vertex -20.2966 -45 4.31417
    endloop
  endfacet
  facet normal 0 -1 0
    outer loop
      vertex 17.129 -45 -7.62631
      vertex 15.1691 -45 -11.021
      vertex 18.9561 -45 -8.43978
    endloop
  endfacet
  facet normal 0 -1 0
    outer loop
      vertex -18.3403 -45 3.89834
      vertex -17.129 -45 7.62631
      vertex -20.2966 -45 4.31417
    endloop
  endfacet
  facet normal -0.948163 -0.0779493 -0.308077
    outer loop
      vertex -18.9561 -45 -8.43978
      vertex -20.2966 -45 -4.31417
      vertex -18 -6 -21.25
    endloop
  endfacet
  facet normal -0.990931 0 -0.134374
    outer loop
      vertex -18 -6 -21.25
      vertex -20.2966 -45 -4.31417
      vertex -18 6 -21.25
    endloop
  endfacet
  facet normal 0 0 -1
    outer loop
      vertex -18 -6 -21.25
      vertex -18 6 -21.25
      vertex 18 -6 -21.25
    endloop
  endfacet
  facet normal 0 0 -1
    outer loop
      vertex 18 -6 -21.25
      vertex -18 6 -21.25
      vertex -18 18 -21.25
    endloop
  endfacet
  facet normal 0 0 -1
    outer loop
      vertex 18 6 -21.25
      vertex -18 18 -21.25
      vertex 18 18 -21.25
    endloop
  endfacet
  facet normal 0 0 -1
    outer loop
      vertex 18 -6 -21.25
      vertex -18 18 -21.25
      vertex 18 6 -21.25
    endloop
  endfacet
  facet normal -1 0 0
    outer loop
      vertex -18 6 -21.25
      vertex -18 6 -6.25
      vertex -18 18 -21.25
    endloop
  endfacet
  facet normal -1 0 0
    outer loop
      vertex -18 18 -21.25
      vertex -18 6 -6.25
      vertex -18 18 -6.25
    endloop
  endfacet
  facet normal -0.996546 0.0830455 0
    outer loop
      vertex -18 6 -21.25
      vertex -19.75 -15 0
      vertex -18 6 -6.25
    endloop
  endfacet
  facet normal -0.988123 0.113253 0.103856
    outer loop
      vertex -18 6 -6.25
      vertex -19.75 -15 0
      vertex -19.3184 -15 4.10626
    endloop
  endfacet
  facet normal -0.993976 0.0331325 0.104471
    outer loop
      vertex -19.75 -15 0
      vertex -20.2966 -45 4.31417
      vertex -19.3184 -15 4.10626
    endloop
  endfacet
  facet normal -0.950534 0.0331325 0.308847
    outer loop
      vertex -18.0425 -15 8.03305
      vertex -20.2966 -45 4.31417
      vertex -18.9561 -45 8.43978
    endloop
  endfacet
  facet normal -0.950534 0.0331325 0.308847
    outer loop
      vertex -19.3184 -15 4.10626
      vertex -20.2966 -45 4.31417
      vertex -18.0425 -15 8.03305
    endloop
  endfacet
  facet normal -0.86555 0.0331325 0.499725
    outer loop
      vertex -18.0425 -15 8.03305
      vertex -18.9561 -45 8.43978
      vertex -16.7871 -45 12.1965
    endloop
  endfacet
  facet normal -0.86555 0.0331325 0.499725
    outer loop
      vertex -15.9781 -15 11.6088
      vertex -18.0425 -15 8.03305
      vertex -16.7871 -45 12.1965
    endloop
  endfacet
  facet normal -0.742737 0.0331325 0.668763
    outer loop
      vertex -15.9781 -15 11.6088
      vertex -16.7871 -45 12.1965
      vertex -13.8845 -45 15.4203
    endloop
  endfacet
  facet normal -0.742737 0.0331325 0.668763
    outer loop
      vertex -13.2153 -15 14.6771
      vertex -15.9781 -15 11.6088
      vertex -13.8845 -45 15.4203
    endloop
  endfacet
  facet normal -0.587463 0.0331325 0.808573
    outer loop
      vertex -13.2153 -15 14.6771
      vertex -13.8845 -45 15.4203
      vertex -9.875 -15 17.104
    endloop
  endfacet
  facet normal -0.587463 0.0331325 0.808573
    outer loop
      vertex -9.875 -15 17.104
      vertex -13.8845 -45 15.4203
      vertex -10.375 -45 17.97
    endloop
  endfacet
  facet normal -0.406513 0.0331325 0.913044
    outer loop
      vertex -9.875 -15 17.104
      vertex -10.375 -45 17.97
      vertex -6.4121 -45 19.7344
    endloop
  endfacet
  facet normal -0.207797 0.0331325 0.977611
    outer loop
      vertex -6.10309 -15 18.7834
      vertex -6.4121 -45 19.7344
      vertex -2.06444 -15 19.6418
    endloop
  endfacet
  facet normal -0.207797 0.0331325 0.977611
    outer loop
      vertex -2.06444 -15 19.6418
      vertex -6.4121 -45 19.7344
      vertex -2.16897 -45 20.6363
    endloop
  endfacet
  facet normal -0.406513 0.0331325 0.913044
    outer loop
      vertex -6.10309 -15 18.7834
      vertex -9.875 -15 17.104
      vertex -6.4121 -45 19.7344
    endloop
  endfacet
  facet normal 0 0.0331325 0.999451
    outer loop
      vertex -2.06444 -15 19.6418
      vertex -2.16897 -45 20.6363
      vertex 2.16897 -45 20.6363
    endloop
  endfacet
  facet normal 0 0.0331325 0.999451
    outer loop
      vertex 2.06444 -15 19.6418
      vertex -2.06444 -15 19.6418
      vertex 2.16897 -45 20.6363
    endloop
  endfacet
  facet normal 0.207797 0.0331325 0.977611
    outer loop
      vertex 6.4121 -45 19.7344
      vertex 2.06444 -15 19.6418
      vertex 2.16897 -45 20.6363
    endloop
  endfacet
  facet normal 0.207797 0.0331325 0.977611
    outer loop
      vertex 6.10309 -15 18.7834
      vertex 2.06444 -15 19.6418
      vertex 6.4121 -45 19.7344
    endloop
  endfacet
  facet normal 0.406513 0.0331325 0.913044
    outer loop
      vertex 9.875 -15 17.104
      vertex 6.10309 -15 18.7834
      vertex 6.4121 -45 19.7344
    endloop
  endfacet
  facet normal 0.406513 0.0331325 0.913044
    outer loop
      vertex 9.875 -15 17.104
      vertex 6.4121 -45 19.7344
      vertex 10.375 -45 17.97
    endloop
  endfacet
  facet normal 0.587463 0.0331325 0.808573
    outer loop
      vertex 13.8845 -45 15.4203
      vertex 9.875 -15 17.104
      vertex 10.375 -45 17.97
    endloop
  endfacet
  facet normal 0.742737 0.0331325 0.668763
    outer loop
      vertex 15.9781 -15 11.6088
      vertex 13.2153 -15 14.6771
      vertex 13.8845 -45 15.4203
    endloop
  endfacet
  facet normal 0.742737 0.0331325 0.668763
    outer loop
      vertex 15.9781 -15 11.6088
      vertex 13.8845 -45 15.4203
      vertex 16.7871 -45 12.1965
    endloop
  endfacet
  facet normal 0.587463 0.0331325 0.808573
    outer loop
      vertex 13.2153 -15 14.6771
      vertex 9.875 -15 17.104
      vertex 13.8845 -45 15.4203
    endloop
  endfacet
  facet normal 0.86555 0.0331325 0.499725
    outer loop
      vertex 18.0425 -15 8.03305
      vertex 15.9781 -15 11.6088
      vertex 16.7871 -45 12.1965
    endloop
  endfacet
  facet normal 0.86555 0.0331325 0.499725
    outer loop
      vertex 18.0425 -15 8.03305
      vertex 16.7871 -45 12.1965
      vertex 18.9561 -45 8.43978
    endloop
  endfacet
  facet normal 0.950534 0.0331325 0.308847
    outer loop
      vertex 20.2966 -45 4.31417
      vertex 18.0425 -15 8.03305
      vertex 18.9561 -45 8.43978
    endloop
  endfacet
  facet normal 0.950534 0.0331325 0.308847
    outer loop
      vertex 19.3184 -15 4.10626
      vertex 18.0425 -15 8.03305
      vertex 20.2966 -45 4.31417
    endloop
  endfacet
  facet normal 0.993976 0.0331325 0.104471
    outer loop
      vertex 19.75 -15 0
      vertex 19.3184 -15 4.10626
      vertex 20.2966 -45 4.31417
    endloop
  endfacet
  facet normal 0.993976 0.0331325 0.104471
    outer loop
      vertex 20.75 -45 0
      vertex 19.75 -15 0
      vertex 20.2966 -45 4.31417
    endloop
  endfacet
  facet normal 0.994471 0.0100722 -0.104523
    outer loop
      vertex 20.2966 -45 -4.31417
      vertex 18 6 -21.25
      vertex 20.75 -45 0
    endloop
  endfacet
  facet normal 0.998228 0.0332743 -0.0493242
    outer loop
      vertex 20.75 -45 0
      vertex 18 6 -21.25
      vertex 19.75 -15 0
    endloop
  endfacet
  facet normal 0.990931 0 -0.134374
    outer loop
      vertex 20.2966 -45 -4.31417
      vertex 18 -6 -21.25
      vertex 18 6 -21.25
    endloop
  endfacet
  facet normal 0.948163 -0.0779493 -0.308077
    outer loop
      vertex 18.9561 -45 -8.43978
      vertex 18 -6 -21.25
      vertex 20.2966 -45 -4.31417
    endloop
  endfacet
  facet normal 0.857304 -0.141563 -0.494964
    outer loop
      vertex 18.9561 -45 -8.43978
      vertex 16.7871 -45 -12.1965
      vertex 18 -6 -21.25
    endloop
  endfacet
  facet normal 0.731588 -0.175669 -0.658725
    outer loop
      vertex 16.7871 -45 -12.1965
      vertex 13.8845 -45 -15.4203
      vertex 18 -6 -21.25
    endloop
  endfacet
  facet normal 0.578188 -0.179972 -0.795807
    outer loop
      vertex 13.8845 -45 -15.4203
      vertex 10.375 -45 -17.97
      vertex 18 -6 -21.25
    endloop
  endfacet
  facet normal 0.401854 -0.154476 -0.90258
    outer loop
      vertex 10.375 -45 -17.97
      vertex 6.4121 -45 -19.7344
      vertex 18 -6 -21.25
    endloop
  endfacet
  facet normal 0.206884 -0.0992944 -0.973314
    outer loop
      vertex 6.4121 -45 -19.7344
      vertex 2.16897 -45 -20.6363
      vertex 18 -6 -21.25
    endloop
  endfacet
  facet normal 0 -0.0157332 -0.999876
    outer loop
      vertex -18 -6 -21.25
      vertex 18 -6 -21.25
      vertex -2.16897 -45 -20.6363
    endloop
  endfacet
  facet normal 0 -0.0157332 -0.999876
    outer loop
      vertex -2.16897 -45 -20.6363
      vertex 18 -6 -21.25
      vertex 2.16897 -45 -20.6363
    endloop
  endfacet
  facet normal -0.206884 -0.0992944 -0.973314
    outer loop
      vertex -6.4121 -45 -19.7344
      vertex -18 -6 -21.25
      vertex -2.16897 -45 -20.6363
    endloop
  endfacet
  facet normal -0.401854 -0.154476 -0.90258
    outer loop
      vertex -10.375 -45 -17.97
      vertex -18 -6 -21.25
      vertex -6.4121 -45 -19.7344
    endloop
  endfacet
  facet normal -0.578188 -0.179972 -0.795807
    outer loop
      vertex -13.8845 -45 -15.4203
      vertex -18 -6 -21.25
      vertex -10.375 -45 -17.97
    endloop
  endfacet
  facet normal -0.731588 -0.175669 -0.658725
    outer loop
      vertex -16.7871 -45 -12.1965
      vertex -18 -6 -21.25
      vertex -13.8845 -45 -15.4203
    endloop
  endfacet
  facet normal -0.857304 -0.141563 -0.494964
    outer loop
      vertex -16.7871 -45 -12.1965
      vertex -18.9561 -45 -8.43978
      vertex -18 -6 -21.25
    endloop
  endfacet
  facet normal 0.994422 -0.0141704 0.104518
    outer loop
      vertex -18.75 -45 0
      vertex -18.3403 -45 -3.89834
      vertex -16 6 -19.25
    endloop
  endfacet
  facet normal 0.988579 0 0.150703
    outer loop
      vertex -18.3403 -45 -3.89834
      vertex -16 -6 -19.25
      vertex -16 6 -19.25
    endloop
  endfacet
  facet normal 0.94908 0.064435 0.308375
    outer loop
      vertex -17.129 -45 -7.62631
      vertex -16 -6 -19.25
      vertex -18.3403 -45 -3.89834
    endloop
  endfacet
  facet normal 0.859448 0.12301 0.496203
    outer loop
      vertex -15.1691 -45 -11.021
      vertex -16 -6 -19.25
      vertex -17.129 -45 -7.62631
    endloop
  endfacet
  facet normal 0.73415 0.15512 0.661031
    outer loop
      vertex -15.1691 -45 -11.021
      vertex -12.5462 -45 -13.934
      vertex -16 -6 -19.25
    endloop
  endfacet
  facet normal 0.580191 0.160232 0.798564
    outer loop
      vertex -12.5462 -45 -13.934
      vertex -9.375 -45 -16.238
      vertex -16 -6 -19.25
    endloop
  endfacet
  facet normal 0.402828 0.138305 0.904766
    outer loop
      vertex -9.375 -45 -16.238
      vertex -5.79407 -45 -17.8323
      vertex -16 -6 -19.25
    endloop
  endfacet
  facet normal 0.207075 0.0896033 0.974213
    outer loop
      vertex -5.79407 -45 -17.8323
      vertex -1.95991 -45 -18.6473
      vertex -16 -6 -19.25
    endloop
  endfacet
  facet normal 0 0.0154524 0.999881
    outer loop
      vertex -1.95991 -45 -18.6473
      vertex 1.95991 -45 -18.6473
      vertex 16 -6 -19.25
    endloop
  endfacet
  facet normal 0 0.0154524 0.999881
    outer loop
      vertex -16 -6 -19.25
      vertex -1.95991 -45 -18.6473
      vertex 16 -6 -19.25
    endloop
  endfacet
  facet normal -0.207075 0.0896033 0.974213
    outer loop
      vertex 5.79407 -45 -17.8323
      vertex 16 -6 -19.25
      vertex 1.95991 -45 -18.6473
    endloop
  endfacet
  facet normal -0.402828 0.138305 0.904766
    outer loop
      vertex 9.375 -45 -16.238
      vertex 16 -6 -19.25
      vertex 5.79407 -45 -17.8323
    endloop
  endfacet
  facet normal -0.580191 0.160232 0.798564
    outer loop
      vertex 12.5462 -45 -13.934
      vertex 16 -6 -19.25
      vertex 9.375 -45 -16.238
    endloop
  endfacet
  facet normal -0.73415 0.15512 0.661031
    outer loop
      vertex 15.1691 -45 -11.021
      vertex 16 -6 -19.25
      vertex 12.5462 -45 -13.934
    endloop
  endfacet
  facet normal -0.859448 0.12301 0.496203
    outer loop
      vertex 17.129 -45 -7.62631
      vertex 16 -6 -19.25
      vertex 15.1691 -45 -11.021
    endloop
  endfacet
  facet normal -0.94908 0.064435 0.308375
    outer loop
      vertex 17.129 -45 -7.62631
      vertex 18.3403 -45 -3.89834
      vertex 16 -6 -19.25
    endloop
  endfacet
  facet normal -0.988579 0 0.150703
    outer loop
      vertex 18.3403 -45 -3.89834
      vertex 16 6 -19.25
      vertex 16 -6 -19.25
    endloop
  endfacet
  facet normal -0.994422 -0.0141704 0.104518
    outer loop
      vertex 18.75 -45 0
      vertex 16 6 -19.25
      vertex 18.3403 -45 -3.89834
    endloop
  endfacet
  facet normal -0.993976 -0.0331325 -0.104471
    outer loop
      vertex 18.75 -45 0
      vertex 18.3403 -45 3.89834
      vertex 17.75 -15 0
    endloop
  endfacet
  facet normal -0.997963 -0.0332654 0.0544343
    outer loop
      vertex 17.75 -15 0
      vertex 16 6 -19.25
      vertex 18.75 -45 0
    endloop
  endfacet
  facet normal -0.950534 -0.0331325 -0.308848
    outer loop
      vertex 18.3403 -45 3.89834
      vertex 17.129 -45 7.62631
      vertex 16.2154 -15 7.21957
    endloop
  endfacet
  facet normal -0.993976 -0.0331325 -0.104471
    outer loop
      vertex 17.75 -15 0
      vertex 18.3403 -45 3.89834
      vertex 17.3621 -15 3.69043
    endloop
  endfacet
  facet normal -0.950534 -0.0331325 -0.308847
    outer loop
      vertex 17.3621 -15 3.69043
      vertex 18.3403 -45 3.89834
      vertex 16.2154 -15 7.21957
    endloop
  endfacet
  facet normal -0.86555 -0.0331325 -0.499725
    outer loop
      vertex 16.2154 -15 7.21957
      vertex 17.129 -45 7.62631
      vertex 15.1691 -45 11.021
    endloop
  endfacet
  facet normal -0.742737 -0.0331325 -0.668763
    outer loop
      vertex 15.1691 -45 11.021
      vertex 12.5462 -45 13.934
      vertex 11.8771 -15 13.1908
    endloop
  endfacet
  facet normal -0.86555 -0.0331325 -0.499725
    outer loop
      vertex 16.2154 -15 7.21957
      vertex 15.1691 -45 11.021
      vertex 14.3601 -15 10.4332
    endloop
  endfacet
  facet normal -0.742737 -0.0331325 -0.668763
    outer loop
      vertex 14.3601 -15 10.4332
      vertex 15.1691 -45 11.021
      vertex 11.8771 -15 13.1908
    endloop
  endfacet
  facet normal -0.587463 -0.0331325 -0.808573
    outer loop
      vertex 11.8771 -15 13.1908
      vertex 12.5462 -45 13.934
      vertex 9.375 -45 16.238
    endloop
  endfacet
  facet normal -0.587463 -0.0331325 -0.808573
    outer loop
      vertex 11.8771 -15 13.1908
      vertex 9.375 -45 16.238
      vertex 8.875 -15 15.372
    endloop
  endfacet
  facet normal -0.406514 -0.0331325 -0.913044
    outer loop
      vertex 8.875 -15 15.372
      vertex 9.375 -45 16.238
      vertex 5.79407 -45 17.8323
    endloop
  endfacet
  facet normal -0.406513 -0.0331325 -0.913044
    outer loop
      vertex 8.875 -15 15.372
      vertex 5.79407 -45 17.8323
      vertex 5.48505 -15 16.8813
    endloop
  endfacet
  facet normal -0.207798 -0.0331325 -0.977611
    outer loop
      vertex 5.48505 -15 16.8813
      vertex 5.79407 -45 17.8323
      vertex 1.85538 -15 17.6528
    endloop
  endfacet
  facet normal -0.207798 -0.0331325 -0.977611
    outer loop
      vertex 5.79407 -45 17.8323
      vertex 1.95991 -45 18.6473
      vertex 1.85538 -15 17.6528
    endloop
  endfacet
  facet normal 0 -0.0331325 -0.999451
    outer loop
      vertex 1.85538 -15 17.6528
      vertex 1.95991 -45 18.6473
      vertex -1.85538 -15 17.6528
    endloop
  endfacet
  facet normal 0 -0.0331325 -0.999451
    outer loop
      vertex -1.85538 -15 17.6528
      vertex 1.95991 -45 18.6473
      vertex -1.95991 -45 18.6473
    endloop
  endfacet
  facet normal 0.207798 -0.0331325 -0.977611
    outer loop
      vertex -1.85538 -15 17.6528
      vertex -1.95991 -45 18.6473
      vertex -5.79407 -45 17.8323
    endloop
  endfacet
  facet normal 0.207798 -0.0331325 -0.977611
    outer loop
      vertex -5.48505 -15 16.8813
      vertex -1.85538 -15 17.6528
      vertex -5.79407 -45 17.8323
    endloop
  endfacet
  facet normal 0.406513 -0.0331325 -0.913044
    outer loop
      vertex -5.48505 -15 16.8813
      vertex -5.79407 -45 17.8323
      vertex -8.875 -15 15.372
    endloop
  endfacet
  facet normal 0.406514 -0.0331325 -0.913044
    outer loop
      vertex -8.875 -15 15.372
      vertex -5.79407 -45 17.8323
      vertex -9.375 -45 16.238
    endloop
  endfacet
  facet normal 0.587463 -0.0331325 -0.808573
    outer loop
      vertex -8.875 -15 15.372
      vertex -9.375 -45 16.238
      vertex -11.8771 -15 13.1908
    endloop
  endfacet
  facet normal 0.587463 -0.0331325 -0.808573
    outer loop
      vertex -11.8771 -15 13.1908
      vertex -9.375 -45 16.238
      vertex -12.5462 -45 13.934
    endloop
  endfacet
  facet normal 0.742737 -0.0331325 -0.668763
    outer loop
      vertex -11.8771 -15 13.1908
      vertex -12.5462 -45 13.934
      vertex -15.1691 -45 11.021
    endloop
  endfacet
  facet normal 0.742737 -0.0331325 -0.668763
    outer loop
      vertex -14.3601 -15 10.4332
      vertex -11.8771 -15 13.1908
      vertex -15.1691 -45 11.021
    endloop
  endfacet
  facet normal 0.86555 -0.0331325 -0.499725
    outer loop
      vertex -14.3601 -15 10.4332
      vertex -15.1691 -45 11.021
      vertex -16.2154 -15 7.21957
    endloop
  endfacet
  facet normal 0.86555 -0.0331325 -0.499725
    outer loop
      vertex -16.2154 -15 7.21957
      vertex -15.1691 -45 11.021
      vertex -17.129 -45 7.62631
    endloop
  endfacet
  facet normal 0.950534 -0.0331325 -0.308848
    outer loop
      vertex -16.2154 -15 7.21957
      vertex -17.129 -45 7.62631
      vertex -18.3403 -45 3.89834
    endloop
  endfacet
  facet normal 0.950534 -0.0331325 -0.308847
    outer loop
      vertex -17.3621 -15 3.69043
      vertex -16.2154 -15 7.21957
      vertex -18.3403 -45 3.89834
    endloop
  endfacet
  facet normal 0.993976 -0.0331325 -0.104471
    outer loop
      vertex -17.75 -15 0
      vertex -17.3621 -15 3.69043
      vertex -18.3403 -45 3.89834
    endloop
  endfacet
  facet normal 0.993976 -0.0331325 -0.104471
    outer loop
      vertex -17.75 -15 0
      vertex -18.3403 -45 3.89834
      vertex -18.75 -45 0
    endloop
  endfacet
  facet normal 0.997963 -0.0332654 0.0544343
    outer loop
      vertex -18.75 -45 0
      vertex -16 6 -19.25
      vertex -17.75 -15 0
    endloop
  endfacet
  facet normal 0.996546 0.0830455 0
    outer loop
      vertex 19.75 -15 0
      vertex 18 6 -21.25
      vertex 18 6 -6.25
    endloop
  endfacet
  facet normal 1 0 0
    outer loop
      vertex 18 6 -6.25
      vertex 18 6 -21.25
      vertex 18 18 -21.25
    endloop
  endfacet
  facet normal 1 0 0
    outer loop
      vertex 18 18 -6.25
      vertex 18 6 -6.25
      vertex 18 18 -21.25
    endloop
  endfacet
  facet normal 0 1 0
    outer loop
      vertex 16.005 18 -8.245
      vertex -18 18 -6.25
      vertex 18 18 -6.25
    endloop
  endfacet
  facet normal 0 1 0
    outer loop
      vertex -18 18 -21.25
      vertex -18 18 -6.25
      vertex -16.005 18 -8.245
    endloop
  endfacet
  facet normal 0 1 0
    outer loop
      vertex -18 18 -21.25
      vertex -16.005 18 -8.245
      vertex -16.005 18 -9.755
    endloop
  endfacet
  facet normal 0 1 0
    outer loop
      vertex -16.005 18 -19.25
      vertex -18 18 -21.25
      vertex -16.005 18 -17.745
    endloop
  endfacet
  facet normal 0 1 0
    outer loop
      vertex -16.005 18 -17.745
      vertex -16.005 18 -9.755
      vertex -16 18 -17.745
    endloop
  endfacet
  facet normal 0 1 0
    outer loop
      vertex -18 18 -21.25
      vertex -16.005 18 -9.755
      vertex -16.005 18 -17.745
    endloop
  endfacet
  facet normal 0 1 0
    outer loop
      vertex 14.495 18 -19.25
      vertex 18 18 -21.25
      vertex -14.495 18 -19.25
    endloop
  endfacet
  facet normal 0 1 0
    outer loop
      vertex -18 18 -21.25
      vertex -16.005 18 -19.25
      vertex 18 18 -21.25
    endloop
  endfacet
  facet normal 0 1 0
    outer loop
      vertex -16.005 18 -19.25
      vertex -14.495 18 -19.25
      vertex 18 18 -21.25
    endloop
  endfacet
  facet normal 0 1 0
    outer loop
      vertex 16.005 18 -19.25
      vertex 18 18 -21.25
      vertex 14.495 18 -19.25
    endloop
  endfacet
  facet normal 0 1 0
    outer loop
      vertex 16 18 -9.755
      vertex 16.005 18 -9.755
      vertex 16 18 -17.745
    endloop
  endfacet
  facet normal 0 1 0
    outer loop
      vertex 16.005 18 -9.755
      vertex 18 18 -6.25
      vertex 16 18 -17.745
    endloop
  endfacet
  facet normal 0 1 0
    outer loop
      vertex 18 18 -21.25
      vertex 16.005 18 -19.25
      vertex 18 18 -6.25
    endloop
  endfacet
  facet normal 0 1 0
    outer loop
      vertex 16.005 18 -19.25
      vertex 16.005 18 -17.745
      vertex 18 18 -6.25
    endloop
  endfacet
  facet normal 0 1 0
    outer loop
      vertex 16.005 18 -17.745
      vertex 16 18 -17.745
      vertex 18 18 -6.25
    endloop
  endfacet
  facet normal 0 1 0
    outer loop
      vertex -14.495 18 -8.25
      vertex -14.495 18 -8.245
      vertex 14.495 18 -8.25
    endloop
  endfacet
  facet normal 0 1 0
    outer loop
      vertex 16.005 18 -8.245
      vertex 18 18 -6.25
      vertex 16.005 18 -9.755
    endloop
  endfacet
  facet normal 0 1 0
    outer loop
      vertex 14.495 18 -8.245
      vertex -18 18 -6.25
      vertex 16.005 18 -8.245
    endloop
  endfacet
  facet normal 0 1 0
    outer loop
      vertex -14.495 18 -8.245
      vertex -18 18 -6.25
      vertex 14.495 18 -8.25
    endloop
  endfacet
  facet normal 0 1 0
    outer loop
      vertex 14.495 18 -8.25
      vertex -18 18 -6.25
      vertex 14.495 18 -8.245
    endloop
  endfacet
  facet normal 0 1 0
    outer loop
      vertex -16 18 -17.745
      vertex -16.005 18 -9.755
      vertex -16 18 -9.755
    endloop
  endfacet
  facet normal 0 1 0
    outer loop
      vertex -16.005 18 -8.245
      vertex -18 18 -6.25
      vertex -14.495 18 -8.245
    endloop
  endfacet
  facet normal 0 0 1
    outer loop
      vertex -18 18 -6.25
      vertex -18 6 -6.25
      vertex 18 6 -6.25
    endloop
  endfacet
  facet normal 0 0 1
    outer loop
      vertex 18 18 -6.25
      vertex -18 18 -6.25
      vertex 18 6 -6.25
    endloop
  endfacet
  facet normal 0 0.776658 0.629922
    outer loop
      vertex -18 6 -6.25
      vertex -2.06444 -15 19.6418
      vertex 18 6 -6.25
    endloop
  endfacet
  facet normal 0 0.776658 0.629922
    outer loop
      vertex 18 6 -6.25
      vertex -2.06444 -15 19.6418
      vertex 2.06444 -15 19.6418
    endloop
  endfacet
  facet normal -0.143514 0.723556 0.675181
    outer loop
      vertex -2.06444 -15 19.6418
      vertex -18 6 -6.25
      vertex -6.10309 -15 18.7834
    endloop
  endfacet
  facet normal -0.308598 0.65142 0.693123
    outer loop
      vertex -6.10309 -15 18.7834
      vertex -18 6 -6.25
      vertex -9.875 -15 17.104
    endloop
  endfacet
  facet normal -0.487798 0.557925 0.671396
    outer loop
      vertex -9.875 -15 17.104
      vertex -18 6 -6.25
      vertex -13.2153 -15 14.6771
    endloop
  endfacet
  facet normal -0.665356 0.445414 0.599089
    outer loop
      vertex -13.2153 -15 14.6771
      vertex -18 6 -6.25
      vertex -15.9781 -15 11.6088
    endloop
  endfacet
  facet normal -0.819472 0.323451 0.473122
    outer loop
      vertex -18 6 -6.25
      vertex -18.0425 -15 8.03305
      vertex -15.9781 -15 11.6088
    endloop
  endfacet
  facet normal -0.93036 0.207486 0.302292
    outer loop
      vertex -18 6 -6.25
      vertex -19.3184 -15 4.10626
      vertex -18.0425 -15 8.03305
    endloop
  endfacet
  facet normal 0.143514 0.723556 0.675181
    outer loop
      vertex 18 6 -6.25
      vertex 2.06444 -15 19.6418
      vertex 6.10309 -15 18.7834
    endloop
  endfacet
  facet normal 0.308598 0.65142 0.693123
    outer loop
      vertex 18 6 -6.25
      vertex 6.10309 -15 18.7834
      vertex 9.875 -15 17.104
    endloop
  endfacet
  facet normal 0.487798 0.557925 0.671396
    outer loop
      vertex 18 6 -6.25
      vertex 9.875 -15 17.104
      vertex 13.2153 -15 14.6771
    endloop
  endfacet
  facet normal 0.665356 0.445414 0.599089
    outer loop
      vertex 18 6 -6.25
      vertex 13.2153 -15 14.6771
      vertex 15.9781 -15 11.6088
    endloop
  endfacet
  facet normal 0.819472 0.323451 0.473122
    outer loop
      vertex 18 6 -6.25
      vertex 15.9781 -15 11.6088
      vertex 18.0425 -15 8.03305
    endloop
  endfacet
  facet normal 0.93036 0.207486 0.302292
    outer loop
      vertex 19.3184 -15 4.10626
      vertex 18 6 -6.25
      vertex 18.0425 -15 8.03305
    endloop
  endfacet
  facet normal 0.988123 0.113253 0.103856
    outer loop
      vertex 19.75 -15 0
      vertex 18 6 -6.25
      vertex 19.3184 -15 4.10626
    endloop
  endfacet
  facet normal 0 -1 2.22045e-16
    outer loop
      vertex -14.495 6 -19.0276
      vertex -16 6 -19.25
      vertex -14.495 6 -19.25
    endloop
  endfacet
  facet normal 0 -1 2.22045e-16
    outer loop
      vertex -15.7135 6 -18.6317
      vertex -16 6 -19.25
      vertex -14.495 6 -19.0276
    endloop
  endfacet
  facet normal 0 -1 2.22045e-16
    outer loop
      vertex -15.7135 6 -17.745
      vertex -16 6 -19.25
      vertex -15.7135 6 -18.6317
    endloop
  endfacet
  facet normal 0 -1 2.22045e-16
    outer loop
      vertex -16 6 -17.745
      vertex -16 6 -19.25
      vertex -15.7135 6 -17.745
    endloop
  endfacet
  facet normal 0 0 1
    outer loop
      vertex -14.495 6 -19.25
      vertex -16 6 -19.25
      vertex 16 -6 -19.25
    endloop
  endfacet
  facet normal 0 0 1
    outer loop
      vertex 16 -6 -19.25
      vertex 16 6 -19.25
      vertex 14.495 6 -19.25
    endloop
  endfacet
  facet normal 0 0 1
    outer loop
      vertex -14.495 18 -19.25
      vertex 16 -6 -19.25
      vertex 14.495 6 -19.25
    endloop
  endfacet
  facet normal 0 0 1
    outer loop
      vertex 14.495 18 -19.25
      vertex -14.495 18 -19.25
      vertex 14.495 6 -19.25
    endloop
  endfacet
  facet normal 0 0 1
    outer loop
      vertex -14.495 18 -19.25
      vertex -14.495 6 -19.25
      vertex 16 -6 -19.25
    endloop
  endfacet
  facet normal 0 0 1
    outer loop
      vertex -16 6 -19.25
      vertex -16 -6 -19.25
      vertex 16 -6 -19.25
    endloop
  endfacet
  facet normal 0 -1 2.22045e-16
    outer loop
      vertex 14.495 6 -18.9635
      vertex 14.495 6 -19.25
      vertex 16 6 -19.25
    endloop
  endfacet
  facet normal 0 -1 2.22045e-16
    outer loop
      vertex 15.3817 6 -18.9635
      vertex 14.495 6 -18.9635
      vertex 16 6 -19.25
    endloop
  endfacet
  facet normal 0 -1 2.22045e-16
    outer loop
      vertex 16 6 -17.745
      vertex 15.3817 6 -18.9635
      vertex 16 6 -19.25
    endloop
  endfacet
  facet normal 0 -1 2.22045e-16
    outer loop
      vertex 15.7776 6 -17.745
      vertex 15.3817 6 -18.9635
      vertex 16 6 -17.745
    endloop
  endfacet
  facet normal -0.996546 -0.0830455 0
    outer loop
      vertex 17.75 -15 0
      vertex 16 6 -8.25
      vertex 16 6 -19.25
    endloop
  endfacet
  facet normal -0.98697 -0.123 -0.103735
    outer loop
      vertex 17.75 -15 0
      vertex 17.3621 -15 3.69043
      vertex 16 6 -8.25
    endloop
  endfacet
  facet normal -0.92534 -0.230974 -0.300661
    outer loop
      vertex 17.3621 -15 3.69043
      vertex 16.2154 -15 7.21957
      vertex 16 6 -8.25
    endloop
  endfacet
  facet normal -0.810295 -0.352934 -0.467824
    outer loop
      vertex 16 6 -8.25
      vertex 16.2154 -15 7.21957
      vertex 14.3601 -15 10.4332
    endloop
  endfacet
  facet normal -0.654642 -0.473289 -0.589442
    outer loop
      vertex 16 6 -8.25
      vertex 14.3601 -15 10.4332
      vertex 11.8771 -15 13.1908
    endloop
  endfacet
  facet normal -0.479134 -0.579247 -0.659472
    outer loop
      vertex 16 6 -8.25
      vertex 11.8771 -15 13.1908
      vertex 8.875 -15 15.372
    endloop
  endfacet
  facet normal -0.30389 -0.664663 -0.682549
    outer loop
      vertex 16 6 -8.25
      vertex 8.875 -15 15.372
      vertex 5.48505 -15 16.8813
    endloop
  endfacet
  facet normal -0.142213 -0.729475 -0.669061
    outer loop
      vertex 16 6 -8.25
      vertex 5.48505 -15 16.8813
      vertex 1.85538 -15 17.6528
    endloop
  endfacet
  facet normal 0 -0.776789 -0.629761
    outer loop
      vertex 16 6 -8.25
      vertex 1.85538 -15 17.6528
      vertex -1.85538 -15 17.6528
    endloop
  endfacet
  facet normal 0 -0.776789 -0.629761
    outer loop
      vertex -16 6 -8.25
      vertex 16 6 -8.25
      vertex -1.85538 -15 17.6528
    endloop
  endfacet
  facet normal 0.142213 -0.729475 -0.669061
    outer loop
      vertex -1.85538 -15 17.6528
      vertex -5.48505 -15 16.8813
      vertex -16 6 -8.25
    endloop
  endfacet
  facet normal 0.30389 -0.664663 -0.682549
    outer loop
      vertex -5.48505 -15 16.8813
      vertex -8.875 -15 15.372
      vertex -16 6 -8.25
    endloop
  endfacet
  facet normal 0.479134 -0.579247 -0.659472
    outer loop
      vertex -8.875 -15 15.372
      vertex -11.8771 -15 13.1908
      vertex -16 6 -8.25
    endloop
  endfacet
  facet normal 0.654642 -0.473289 -0.589442
    outer loop
      vertex -11.8771 -15 13.1908
      vertex -14.3601 -15 10.4332
      vertex -16 6 -8.25
    endloop
  endfacet
  facet normal 0.810295 -0.352934 -0.467824
    outer loop
      vertex -16 6 -8.25
      vertex -14.3601 -15 10.4332
      vertex -16.2154 -15 7.21957
    endloop
  endfacet
  facet normal 0.92534 -0.230974 -0.300661
    outer loop
      vertex -16 6 -8.25
      vertex -16.2154 -15 7.21957
      vertex -17.3621 -15 3.69043
    endloop
  endfacet
  facet normal 0.98697 -0.123 -0.103735
    outer loop
      vertex -16 6 -8.25
      vertex -17.3621 -15 3.69043
      vertex -17.75 -15 0
    endloop
  endfacet
  facet normal 0.996546 -0.0830455 0
    outer loop
      vertex -17.75 -15 0
      vertex -16 6 -19.25
      vertex -16 6 -8.25
    endloop
  endfacet
  facet normal 1 4.93038e-32 2.22045e-16
    outer loop
      vertex -14.495 18 -8.53647
      vertex -14.495 18 -8.245
      vertex -14.495 18 -8.25
    endloop
  endfacet
  facet normal 1 4.93038e-32 2.22045e-16
    outer loop
      vertex -14.495 6 -8.25
      vertex -14.495 6 -8.53647
      vertex -14.495 18 -8.25
    endloop
  endfacet
  facet normal 1 4.93038e-32 2.22045e-16
    outer loop
      vertex -14.495 6 -8.53647
      vertex -14.495 18 -8.53647
      vertex -14.495 18 -8.25
    endloop
  endfacet
  facet normal 0 0 -1
    outer loop
      vertex -14.495 6 -8.25
      vertex -14.495 18 -8.25
      vertex 14.495 18 -8.25
    endloop
  endfacet
  facet normal 0 0 -1
    outer loop
      vertex -14.495 6 -8.25
      vertex 14.495 18 -8.25
      vertex 14.495 6 -8.25
    endloop
  endfacet
  facet normal 0 0 -1
    outer loop
      vertex -14.495 6 -8.25
      vertex 16 6 -8.25
      vertex -16 6 -8.25
    endloop
  endfacet
  facet normal 0 0 -1
    outer loop
      vertex 14.495 6 -8.25
      vertex 16 6 -8.25
      vertex -14.495 6 -8.25
    endloop
  endfacet
  facet normal -1 2.71926e-32 1.22465e-16
    outer loop
      vertex 14.495 6 -8.4724
      vertex 14.495 6 -8.25
      vertex 14.495 18 -8.4724
    endloop
  endfacet
  facet normal -1 2.71926e-32 1.22465e-16
    outer loop
      vertex 14.495 18 -8.4724
      vertex 14.495 6 -8.25
      vertex 14.495 18 -8.25
    endloop
  endfacet
  facet normal -1 2.71926e-32 1.22465e-16
    outer loop
      vertex 14.495 18 -8.4724
      vertex 14.495 18 -8.25
      vertex 14.495 18 -8.245
    endloop
  endfacet
  facet normal -1.22465e-16 -2.22045e-16 -1
    outer loop
      vertex 15.7135 6 -9.755
      vertex 15.7135 18 -9.755
      vertex 16 6 -9.755
    endloop
  endfacet
  facet normal -1.22465e-16 -2.22045e-16 -1
    outer loop
      vertex 16 18 -9.755
      vertex 15.7135 18 -9.755
      vertex 16.005 18 -9.755
    endloop
  endfacet
  facet normal -1.22465e-16 -2.22045e-16 -1
    outer loop
      vertex 16 6 -9.755
      vertex 15.7135 18 -9.755
      vertex 16 18 -9.755
    endloop
  endfacet
  facet normal -1 0 0
    outer loop
      vertex 16 18 -17.745
      vertex 16 6 -9.755
      vertex 16 18 -9.755
    endloop
  endfacet
  facet normal -1 0 0
    outer loop
      vertex 16 6 -17.745
      vertex 16 6 -9.755
      vertex 16 18 -17.745
    endloop
  endfacet
  facet normal -1 0 0
    outer loop
      vertex 16 6 -8.25
      vertex 16 6 -9.755
      vertex 16 6 -17.745
    endloop
  endfacet
  facet normal -1 0 0
    outer loop
      vertex 16 6 -8.25
      vertex 16 6 -17.745
      vertex 16 6 -19.25
    endloop
  endfacet
  facet normal 2.22045e-16 2.22045e-16 1
    outer loop
      vertex 15.7776 18 -17.745
      vertex 15.7776 6 -17.745
      vertex 16 6 -17.745
    endloop
  endfacet
  facet normal 2.22045e-16 2.22045e-16 1
    outer loop
      vertex 16.005 18 -17.745
      vertex 15.7776 18 -17.745
      vertex 16 18 -17.745
    endloop
  endfacet
  facet normal 2.22045e-16 2.22045e-16 1
    outer loop
      vertex 16 18 -17.745
      vertex 15.7776 18 -17.745
      vertex 16 6 -17.745
    endloop
  endfacet
  facet normal 0 1 -2.22045e-16
    outer loop
      vertex 14.495 18 -19.25
      vertex 14.495 18 -18.9635
      vertex 16.005 18 -19.25
    endloop
  endfacet
  facet normal 0 1 -2.22045e-16
    outer loop
      vertex 16.005 18 -19.25
      vertex 14.495 18 -18.9635
      vertex 15.3817 18 -18.9635
    endloop
  endfacet
  facet normal 0 1 -2.22045e-16
    outer loop
      vertex 16.005 18 -19.25
      vertex 15.3817 18 -18.9635
      vertex 15.7776 18 -17.745
    endloop
  endfacet
  facet normal 0 1 -2.22045e-16
    outer loop
      vertex 16.005 18 -19.25
      vertex 15.7776 18 -17.745
      vertex 16.005 18 -17.745
    endloop
  endfacet
  facet normal -1 4.93038e-32 2.22045e-16
    outer loop
      vertex 14.495 6 -19.25
      vertex 14.495 6 -18.9635
      vertex 14.495 18 -19.25
    endloop
  endfacet
  facet normal -1 4.93038e-32 2.22045e-16
    outer loop
      vertex 14.495 18 -19.25
      vertex 14.495 6 -18.9635
      vertex 14.495 18 -18.9635
    endloop
  endfacet
  facet normal 1 0 0
    outer loop
      vertex -14.495 6 -19.0276
      vertex -14.495 6 -19.25
      vertex -14.495 18 -19.25
    endloop
  endfacet
  facet normal 1 0 0
    outer loop
      vertex -14.495 18 -19.0276
      vertex -14.495 6 -19.0276
      vertex -14.495 18 -19.25
    endloop
  endfacet
  facet normal 0 1 -2.22045e-16
    outer loop
      vertex -14.495 18 -19.0276
      vertex -14.495 18 -19.25
      vertex -15.7135 18 -18.6317
    endloop
  endfacet
  facet normal 0 1 -2.22045e-16
    outer loop
      vertex -16.005 18 -19.25
      vertex -16.005 18 -17.745
      vertex -15.7135 18 -18.6317
    endloop
  endfacet
  facet normal 0 1 -2.22045e-16
    outer loop
      vertex -16.005 18 -19.25
      vertex -15.7135 18 -18.6317
      vertex -14.495 18 -19.25
    endloop
  endfacet
  facet normal 0 1 -2.22045e-16
    outer loop
      vertex -15.7135 18 -18.6317
      vertex -16.005 18 -17.745
      vertex -15.7135 18 -17.745
    endloop
  endfacet
  facet normal 0 2.22045e-16 1
    outer loop
      vertex -15.7135 18 -17.745
      vertex -16.005 18 -17.745
      vertex -16 18 -17.745
    endloop
  endfacet
  facet normal 0 2.22045e-16 1
    outer loop
      vertex -16 6 -17.745
      vertex -15.7135 6 -17.745
      vertex -16 18 -17.745
    endloop
  endfacet
  facet normal 0 2.22045e-16 1
    outer loop
      vertex -15.7135 6 -17.745
      vertex -15.7135 18 -17.745
      vertex -16 18 -17.745
    endloop
  endfacet
  facet normal 1 0 0
    outer loop
      vertex -16 6 -17.745
      vertex -16 18 -17.745
      vertex -16 18 -9.755
    endloop
  endfacet
  facet normal 1 0 0
    outer loop
      vertex -16 6 -8.25
      vertex -16 6 -17.745
      vertex -16 6 -9.755
    endloop
  endfacet
  facet normal 1 0 0
    outer loop
      vertex -16 6 -9.755
      vertex -16 6 -17.745
      vertex -16 18 -9.755
    endloop
  endfacet
  facet normal 1 0 0
    outer loop
      vertex -16 6 -19.25
      vertex -16 6 -17.745
      vertex -16 6 -8.25
    endloop
  endfacet
  facet normal 2.22045e-16 -2.22045e-16 -1
    outer loop
      vertex -16 18 -9.755
      vertex -16.005 18 -9.755
      vertex -15.7776 18 -9.755
    endloop
  endfacet
  facet normal 2.22045e-16 -2.22045e-16 -1
    outer loop
      vertex -16 18 -9.755
      vertex -15.7776 18 -9.755
      vertex -15.7776 6 -9.755
    endloop
  endfacet
  facet normal 2.22045e-16 -2.22045e-16 -1
    outer loop
      vertex -16 18 -9.755
      vertex -15.7776 6 -9.755
      vertex -16 6 -9.755
    endloop
  endfacet
  facet normal 1 0 0
    outer loop
      vertex -15.7135 18 -18.6317
      vertex -15.7135 18 -17.745
      vertex -15.7135 6 -17.745
    endloop
  endfacet
  facet normal 1 0 0
    outer loop
      vertex -15.7135 6 -18.6317
      vertex -15.7135 18 -18.6317
      vertex -15.7135 6 -17.745
    endloop
  endfacet
  facet normal 0.309017 2.11177e-16 0.951056
    outer loop
      vertex -14.495 6 -19.0276
      vertex -14.495 18 -19.0276
      vertex -15.7135 18 -18.6317
    endloop
  endfacet
  facet normal 0.309017 2.11177e-16 0.951056
    outer loop
      vertex -15.7135 6 -18.6317
      vertex -14.495 6 -19.0276
      vertex -15.7135 18 -18.6317
    endloop
  endfacet
  facet normal 2.22045e-16 2.22045e-16 1
    outer loop
      vertex 15.3817 6 -18.9635
      vertex 15.3817 18 -18.9635
      vertex 14.495 18 -18.9635
    endloop
  endfacet
  facet normal 2.22045e-16 2.22045e-16 1
    outer loop
      vertex 14.495 6 -18.9635
      vertex 15.3817 6 -18.9635
      vertex 14.495 18 -18.9635
    endloop
  endfacet
  facet normal -0.951056 6.86156e-17 0.309017
    outer loop
      vertex 15.7776 18 -17.745
      vertex 15.3817 18 -18.9635
      vertex 15.7776 6 -17.745
    endloop
  endfacet
  facet normal -0.951056 6.86156e-17 0.309017
    outer loop
      vertex 15.7776 6 -17.745
      vertex 15.3817 18 -18.9635
      vertex 15.3817 6 -18.9635
    endloop
  endfacet
  facet normal 0 1 -2.22045e-16
    outer loop
      vertex -15.7776 18 -9.755
      vertex -16.005 18 -9.755
      vertex -15.3817 18 -8.53648
    endloop
  endfacet
  facet normal 0 1 -2.22045e-16
    outer loop
      vertex -16.005 18 -8.245
      vertex -14.495 18 -8.245
      vertex -15.3817 18 -8.53648
    endloop
  endfacet
  facet normal 0 1 -2.22045e-16
    outer loop
      vertex -16.005 18 -8.245
      vertex -15.3817 18 -8.53648
      vertex -16.005 18 -9.755
    endloop
  endfacet
  facet normal 0 1 -2.22045e-16
    outer loop
      vertex -15.3817 18 -8.53648
      vertex -14.495 18 -8.245
      vertex -14.495 18 -8.53647
    endloop
  endfacet
  facet normal 2.22045e-16 -2.22045e-16 -1
    outer loop
      vertex -14.495 18 -8.53647
      vertex -14.495 6 -8.53647
      vertex -15.3817 18 -8.53648
    endloop
  endfacet
  facet normal 2.22045e-16 -2.22045e-16 -1
    outer loop
      vertex -15.3817 18 -8.53648
      vertex -14.495 6 -8.53647
      vertex -15.3817 6 -8.53647
    endloop
  endfacet
  facet normal 0 -1 2.22045e-16
    outer loop
      vertex -16 6 -8.25
      vertex -16 6 -9.755
      vertex -15.7776 6 -9.755
    endloop
  endfacet
  facet normal 0 -1 2.22045e-16
    outer loop
      vertex -14.495 6 -8.53647
      vertex -16 6 -8.25
      vertex -15.3817 6 -8.53647
    endloop
  endfacet
  facet normal 0 -1 2.22045e-16
    outer loop
      vertex -15.3817 6 -8.53647
      vertex -16 6 -8.25
      vertex -15.7776 6 -9.755
    endloop
  endfacet
  facet normal 0 -1 2.22045e-16
    outer loop
      vertex -14.495 6 -8.25
      vertex -16 6 -8.25
      vertex -14.495 6 -8.53647
    endloop
  endfacet
  facet normal 0 -1 2.22045e-16
    outer loop
      vertex 14.495 6 -8.25
      vertex 14.495 6 -8.4724
      vertex 15.7135 6 -8.86832
    endloop
  endfacet
  facet normal 0 -1 2.22045e-16
    outer loop
      vertex 16 6 -8.25
      vertex 14.495 6 -8.25
      vertex 15.7135 6 -8.86832
    endloop
  endfacet
  facet normal 0 -1 2.22045e-16
    outer loop
      vertex 15.7135 6 -9.755
      vertex 16 6 -9.755
      vertex 15.7135 6 -8.86832
    endloop
  endfacet
  facet normal 0 -1 2.22045e-16
    outer loop
      vertex 16 6 -9.755
      vertex 16 6 -8.25
      vertex 15.7135 6 -8.86832
    endloop
  endfacet
  facet normal 0 1 -2.22045e-16
    outer loop
      vertex 14.495 18 -8.4724
      vertex 14.495 18 -8.245
      vertex 15.7135 18 -8.86832
    endloop
  endfacet
  facet normal 0 1 -2.22045e-16
    outer loop
      vertex 15.7135 18 -8.86832
      vertex 14.495 18 -8.245
      vertex 16.005 18 -8.245
    endloop
  endfacet
  facet normal 0 1 -2.22045e-16
    outer loop
      vertex 15.7135 18 -8.86832
      vertex 16.005 18 -8.245
      vertex 16.005 18 -9.755
    endloop
  endfacet
  facet normal 0 1 -2.22045e-16
    outer loop
      vertex 15.7135 18 -8.86832
      vertex 16.005 18 -9.755
      vertex 15.7135 18 -9.755
    endloop
  endfacet
  facet normal -0.309017 -2.11177e-16 -0.951056
    outer loop
      vertex 15.7135 18 -8.86832
      vertex 15.7135 6 -8.86832
      vertex 14.495 18 -8.4724
    endloop
  endfacet
  facet normal -0.309017 -2.11177e-16 -0.951056
    outer loop
      vertex 14.495 18 -8.4724
      vertex 15.7135 6 -8.86832
      vertex 14.495 6 -8.4724
    endloop
  endfacet
  facet normal -1 2.71926e-32 1.22465e-16
    outer loop
      vertex 15.7135 18 -8.86832
      vertex 15.7135 18 -9.755
      vertex 15.7135 6 -8.86832
    endloop
  endfacet
  facet normal -1 2.71926e-32 1.22465e-16
    outer loop
      vertex 15.7135 6 -8.86832
      vertex 15.7135 18 -9.755
      vertex 15.7135 6 -9.755
    endloop
  endfacet
  facet normal 0.951056 -6.86156e-17 -0.309017
    outer loop
      vertex -15.7776 18 -9.755
      vertex -15.3817 18 -8.53648
      vertex -15.3817 6 -8.53647
    endloop
  endfacet
  facet normal 0.951056 -6.86156e-17 -0.309017
    outer loop
      vertex -15.7776 6 -9.755
      vertex -15.7776 18 -9.755
      vertex -15.3817 6 -8.53647
    endloop
  endfacet
endsolid OpenSCAD_Model
